<mxfile host="app.diagrams.net" modified="2021-01-23T16:59:43.101Z" agent="5.0 (Macintosh; Intel Mac OS X 11_1_0) AppleWebKit/537.36 (KHTML, like Gecko) Chrome/87.0.4280.88 Safari/537.36" etag="m7bkKmSkn3TVM8fJ28zB" version="14.2.7" type="github">
  <diagram id="UCJlPTCPI7tPTAEzfjQQ" name="Page-1">
    <mxGraphModel dx="1773" dy="545" grid="1" gridSize="10" guides="1" tooltips="1" connect="1" arrows="1" fold="1" page="1" pageScale="1" pageWidth="827" pageHeight="1169" math="0" shadow="0">
      <root>
        <mxCell id="0" />
        <mxCell id="1" parent="0" />
        <mxCell id="dXM34E2tdsCqqJQzRthR-20" style="edgeStyle=orthogonalEdgeStyle;rounded=0;orthogonalLoop=1;jettySize=auto;html=1;exitX=0.5;exitY=1;exitDx=0;exitDy=0;" edge="1" parent="1" source="dXM34E2tdsCqqJQzRthR-1" target="dXM34E2tdsCqqJQzRthR-4">
          <mxGeometry relative="1" as="geometry" />
        </mxCell>
        <mxCell id="dXM34E2tdsCqqJQzRthR-1" value="" style="rounded=1;whiteSpace=wrap;html=1;arcSize=20;" vertex="1" parent="1">
          <mxGeometry x="70" y="40" width="120" height="60" as="geometry" />
        </mxCell>
        <mxCell id="dXM34E2tdsCqqJQzRthR-2" value="Criar Extra Attribute&lt;br&gt;Ex: Convive com Fumador" style="text;html=1;strokeColor=none;fillColor=none;align=center;verticalAlign=middle;whiteSpace=wrap;rounded=0;" vertex="1" parent="1">
          <mxGeometry x="72.5" y="32.5" width="115" height="67.5" as="geometry" />
        </mxCell>
        <mxCell id="dXM34E2tdsCqqJQzRthR-21" style="edgeStyle=orthogonalEdgeStyle;rounded=0;orthogonalLoop=1;jettySize=auto;html=1;exitX=0.5;exitY=1;exitDx=0;exitDy=0;entryX=0.5;entryY=0;entryDx=0;entryDy=0;" edge="1" parent="1" source="dXM34E2tdsCqqJQzRthR-4" target="dXM34E2tdsCqqJQzRthR-6">
          <mxGeometry relative="1" as="geometry" />
        </mxCell>
        <mxCell id="dXM34E2tdsCqqJQzRthR-4" value="" style="rounded=1;whiteSpace=wrap;html=1;" vertex="1" parent="1">
          <mxGeometry x="37.5" y="175" width="190" height="70" as="geometry" />
        </mxCell>
        <mxCell id="dXM34E2tdsCqqJQzRthR-5" value="Criar as Segmentation Rules&lt;br&gt;Ex: Convive com Fumador -&amp;nbsp; Sim&lt;br&gt;Convive com Fumador -&amp;nbsp; Não&amp;nbsp;" style="text;html=1;strokeColor=none;fillColor=none;align=center;verticalAlign=middle;whiteSpace=wrap;rounded=0;" vertex="1" parent="1">
          <mxGeometry x="-10" y="175" width="290" height="62.5" as="geometry" />
        </mxCell>
        <mxCell id="dXM34E2tdsCqqJQzRthR-6" value="" style="rounded=1;whiteSpace=wrap;html=1;" vertex="1" parent="1">
          <mxGeometry x="35" y="310" width="200" height="77.5" as="geometry" />
        </mxCell>
        <mxCell id="dXM34E2tdsCqqJQzRthR-7" value="Criar as Segmentações&lt;br&gt;Ex: Sim - Convive com Fumador&lt;br&gt;Não - Convive com Fumador" style="text;html=1;strokeColor=none;fillColor=none;align=center;verticalAlign=middle;whiteSpace=wrap;rounded=0;" vertex="1" parent="1">
          <mxGeometry x="35" y="321.25" width="220" height="55" as="geometry" />
        </mxCell>
      </root>
    </mxGraphModel>
  </diagram>
</mxfile>
